<?xml version="1.0" encoding="UTF-8"?>
<svg id="Layer_2" data-name="Layer 2" xmlns="http://www.w3.org/2000/svg" viewBox="0 0 378.8 167.24">
  <defs>
    <style>
      .cls-1 {
        font-family: Gotham-UltraItalic, 'Gotham Ultra';
        font-size: 58.8px;
        font-style: italic;
        letter-spacing: 0em;
      }

      .cls-1, .cls-2, .cls-3, .cls-4 {
        fill: #111;
      }

      .cls-2 {
        font-family: Gotham-Black, 'Gotham Black';
        font-size: 33.31px;
        font-weight: 800;
      }

      .cls-3 {
        font-family: Montserrat-Bold, Montserrat;
        font-size: 25.08px;
        font-weight: 700;
        letter-spacing: .3em;
      }

      .cls-4 {
        stroke-width: 0px;
      }
    </style>
  </defs>
  <g id="Layer_1-2" data-name="Layer 1">
    <g>
      <path class="cls-4" d="M189.41,5.31c-28.49,0-53.97,13.17-70.63,33.76,4.86-1.21,10.07-2.31,15.59-3.28,14.53-13.26,33.87-21.35,55.04-21.35s39.63,7.74,54.05,20.47c5.43.83,10.62,1.78,15.5,2.88-16.68-19.85-41.66-32.47-69.55-32.47Z"/>
      <path class="cls-4" d="M250.11,23.45c-3.89,0-6.49-2.57-6.52-6.46-.03-3.84,2.62-6.53,6.45-6.54,3.72,0,6.57,2.81,6.58,6.49,0,3.78-2.71,6.5-6.51,6.51ZM253.65,13.24c-1.9-2.16-4.45-2.1-7.05-.3-2.06,1.42-2.26,3.55-1.39,5.09,2.8-1.59,5.59-3.18,8.44-4.79Z"/>
      <path class="cls-4" d="M260.89,30.88c-3.01,0-5.02-1.98-5.04-4.99-.02-2.97,2.03-5.04,4.98-5.05,2.87,0,5.08,2.17,5.08,5.01,0,2.92-2.1,5.02-5.03,5.03ZM263.63,22.99c-1.47-1.67-3.44-1.62-5.45-.23-1.59,1.1-1.74,2.74-1.07,3.93,2.16-1.23,4.32-2.45,6.52-3.7Z"/>
      <path class="cls-4" d="M270.1,19.76c-5.92,0-9.87-3.91-9.92-9.82C260.14,4.1,264.17,0,269.99,0c5.65,0,9.99,4.27,10.01,9.87.01,5.75-4.12,9.89-9.89,9.89ZM275.49,4.24c-2.89-3.28-6.77-3.19-10.72-.45-3.13,2.16-3.43,5.4-2.11,7.74,4.26-2.42,8.51-4.83,12.83-7.29Z"/>
      <text class="cls-2" transform="translate(0 130.11)"><tspan x="0" y="0">JENESIS FRESHENING</tspan></text>
      <text class="cls-3" transform="translate(94.25 160.57)"><tspan x="0" y="0">CLEANING</tspan></text>
      <path class="cls-4" d="M103.86,40.98c-.22,3.65,1.51,5.11,4.92,4.9q-4.24.87-4.87,5.03c-.13-.33-.25-.49-.25-.65.08-3.15-1.64-4.32-4.8-4.29,3.59.21,5.09-1.5,4.99-4.99Z"/>
      <path class="cls-4" d="M114.07,37.9c-.18,2.96,1.22,4.14,3.99,3.97q-3.44.71-3.94,4.08c-.11-.27-.2-.4-.2-.53.07-2.55-1.33-3.5-3.89-3.48,2.91.17,4.12-1.22,4.05-4.04Z"/>
      <path class="cls-4" d="M112.37,47.65c-.16,2.62,1.08,3.66,3.53,3.51q-3.04.62-3.49,3.6c-.09-.24-.18-.35-.18-.46.06-2.25-1.18-3.1-3.44-3.07,2.57.15,3.65-1.08,3.58-3.58Z"/>
      <path class="cls-4" d="M108.12,37.15c-.11,1.76.72,2.45,2.37,2.35q-2.04.42-2.34,2.42c-.06-.16-.12-.24-.12-.31.04-1.51-.79-2.08-2.31-2.06,1.72.1,2.44-.72,2.4-2.4Z"/>
      <path class="cls-4" d="M170.18,84.51c.43-.15.88-.2,1.33-.18-1.08-2.66-2.23-5.29-3.47-7.88-.5-1.04-1.31-1.96-2.1-2.84-1.29-1.43-2.67-2.77-4.01-4.16.02-.1.04-.2.07-.3,1.2,0,2.41-.05,3.61,0,3.36.17,6.72.41,10.08.57.39.02,1-.17,1.15-.46.79-1.5,1.46-3.05,2.25-4.77-6.52,1.04-12.87,1.67-19.24.93-.2.49-.36.86-.52,1.23-.07,0-.14-.01-.21-.02-.1-1.02-.2-2.05-.31-3.07-.08.01-.16.02-.25.03-.06.67-.12,1.34-.16,1.81-1.31-1.22-2.61-2.42-3.83-3.55.71-.63,1.4-1.23,2.09-1.84-.6.1-1.02.4-1.44.69-.83.57-1.62.66-2.19-.32-.29-.5-.58-1.06-.64-1.62-.12-1.25-1.08-1.6-1.93-2.19-.57-.39-1.29-1.2-1.22-1.73.13-.97.79-1.88,1.21-2.78-.37.17-.83.39-1.35.64-.07-.62-.13-1.09-.21-1.77-.33.78-.47,1.44-.85,1.89-.5.58-.41,1.04-.18,1.68.62,1.66.52,3.36-.14,4.99-.23.57-.71,1.03-1.07,1.54-.08-.05-.17-.1-.25-.15.96-1.34,1.06-2.73.33-4.24-.22.13-.39.23-.55.32-1.73,1.03-2.44.83-3.29-.9-.19-.39-.38-.78-.62-1.15-.84-1.31-.88-2.05.12-3.21,1.07-1.22,2.19-2.41,3.4-3.48,2.21-1.94,3.2-1.83,5.46.04,2.25,1.87,4.62,3.6,6.92,5.41.53.42,1.02.9,1.53,1.35v-1.13c5.9.69,11.72.8,17.59.45-.17-1.07-.69-1.31-1.6-1.31-4.51-.02-9.03-.1-13.54-.19-1.96-.04-3.71-.67-5.18-2.03-1.81-1.66-3.63-3.31-5.51-4.89-1.83-1.54-3.41-1.59-5.43-.31-.47.3-.93.62-1.4.93l-.28-.25c.85-1.34,1.7-2.69,2.71-4.28-1.79-.36-3.46-.85-5.17-1.02-5.15-.51-10.18.41-15.17,1.53-.5.11-.9.67-1.39,1.05-.52-.52-3.83,0-4.33.9-.06.1-.09.24-.06.34.23.99.39,2.01.74,2.95.21.55,3.96.26,4.29-.26.14-.22.35-.4.53-.59.16.25.41.5.44.76.05.46-.13.96-.05,1.41.07.4.32,1.03.59,1.08,1.55.32,1.99,1.55,2.49,2.77.3.71.29,1.23-.32,1.89-1.42,1.53-.98,4,.89,4.8,1,.43,1.78.84,2.07,2.2.48-.33.88-.72,1.01-1.19.46-1.56,1.74-1.44,3.17-1.64.13,1.06.59,2.14.29,2.93-.58,1.53-.54,2.89.28,4.19.88,1.41,1.92,2.7,2.71,4.19.8,1.52,2.55,1.94,4.21,2.04.93.06,1.28.44,1.41,1.33.25,1.68.66,3.33.93,5.01.62,3.88,1.45,7.68,3.65,11.03.81-.64,1.88-.98,3.16-.72,1.57.32,3.04.96,4.38,1.83-.03-2.76,3.66-4.71,6.11-3.02,0-.15,0-.29.02-.44.15-2.05,1.62-3.8,3.8-3.8.86,0,1.74.35,2.43.91ZM149.04,57.14c1.66.21,2.64.86,2.6,1.69-.05.91-1.44,1.52-3.21,1.39.2-1.03.41-2.06.61-3.08ZM146.73,57.3c0,.76.12,1.56-.05,2.28-.1.43-.62.96-1.04,1.06-.27.06-.82-.51-1.04-.91-.27-.5-.33-1.11-.48-1.67.94-.27,1.69-.49,2.61-.76ZM142.83,57.64c.1.1.13.29.18.44.31.9.62,1.79,1,2.92-1.24.16-2.37.37-3.51.44-1.1.06-1.52-.49-1.74-2.08-.13-.95.02-1.79,1.11-2.04.73-.16,1.49-.25,2.23-.25.24,0,.5.36.72.58ZM136.22,50.71c.08.02.22-.19.32-.3.99-1.05,1.36-.99,2.01.55-1.51.63-2.95,1.22-4.38,1.81-.06-.1-.11-.2-.17-.3.86-.44.62-2.14,2.22-1.76ZM135.44,56.9c-1,.63-2.04,1.21-3.13,1.66-.95.4-2.02-.7-2.05-2.38.26-.23.66-.91,1.17-1,1.19-.2,2.43-.18,3.65-.12.35.02.92.43.95.7.04.37-.26.93-.59,1.14ZM137.29,56.95c-.34-1.04-.64-1.95-.96-2.92,1.35-.35,2.64-1.73,4.23-1.4.51,1.28.94,2.37,1.43,3.61-1.59.24-3.27.49-4.7.71ZM138.55,63.69c.09-.39.49-.88.86-1.01,1.89-.64,3.79-1.3,5.86-.72.47.13,1.06-.13,1.59-.22,1.02-.17,2.05-.45,3.07-.48.41-.01,1.09.48,1.17.85.08.4-.28,1.2-.64,1.33-3.05,1.17-6.14,2.22-8.79,3.16-1.44.02-3.32-1.98-3.12-2.91ZM151.48,66.19c-.6.56-1.29,1.05-2.01,1.44-1.21.67-2.48,1.21-3.7,1.86-.38.2-.66.59-.99.9.02.12.04.24.06.36-1.18-.21-2.72-.13-3.06-1.51-.34-1.4,1.09-2.06,2.13-2.47,2-.8,4.1-1.35,6.17-1.97.29-.09.64-.04.94.02.95.19,1.15.72.45,1.36Z"/>
      <text class="cls-1" transform="translate(174.07 86.16)"><tspan x="0" y="0">JFC</tspan></text>
    </g>
  </g>
</svg>