<?xml version="1.0" encoding="UTF-8"?>
<svg id="Layer_2" data-name="Layer 2" xmlns="http://www.w3.org/2000/svg" xmlns:xlink="http://www.w3.org/1999/xlink" viewBox="0 0 377.13 160.95">
  <defs>
    <style>
      .cls-1 {
        fill: url(#linear-gradient);
        stroke-width: 0px;
      }
    </style>
    <linearGradient id="linear-gradient" x1="0" y1="80.47" x2="377.13" y2="80.47" gradientUnits="userSpaceOnUse">
      <stop offset="0" stop-color="#946f2f"/>
      <stop offset=".1" stop-color="#b09144"/>
      <stop offset=".21" stop-color="#cab158"/>
      <stop offset=".31" stop-color="#dcc867"/>
      <stop offset=".41" stop-color="#e8d670"/>
      <stop offset=".5" stop-color="#ecdb73"/>
      <stop offset=".58" stop-color="#e6d46e"/>
      <stop offset=".7" stop-color="#d8c263"/>
      <stop offset=".83" stop-color="#c0a44f"/>
      <stop offset=".98" stop-color="#a07a34"/>
      <stop offset="1" stop-color="#9a7330"/>
    </linearGradient>
  </defs>
  <g id="Layer_1-2" data-name="Layer 1">
    <path class="cls-1" d="M14.59,128.16c-3.52,3.93-12.37,2.55-14.59-1.57l4.16-3.93c1.95,2.86,6.33,3.23,6.3-1.1v-14.76h6.43c-.54,4.5,1.68,18.2-2.3,21.35ZM27.12,120.93h11.19v-5.1h-11.19v-3.53h12.36v-5.5h-18.75v23.32h18.92v-5.5h-12.52v-3.7ZM58.56,119.13l-9.59-12.32h-6.03v23.32h6.4v-12.79l9.96,12.79h5.66v-23.32h-6.4v12.32ZM75.49,120.93h11.19v-5.1h-11.19v-3.53h12.36v-5.5h-18.75v23.32h18.92v-5.5h-12.52v-3.7ZM100.7,125.16c-2.7,0-5.26-.97-7.56-2.8l-3.6,4.3c5.29,5.42,20.58,5.87,20.35-3.8.37-7.95-10.87-5.6-12.73-9.53.93-3.26,6.47-.93,8.86.73l3.23-4.56c-4.97-4.83-19.13-4.27-18.62,4.43,0,4.8,3.83,6.19,8.79,7.33,4.9.71,5.31,3.59,1.27,3.9ZM113.16,130.12h6.5v-23.32h-6.5v23.32ZM133.82,115.6c-9.51-2.3-.54-6.21,4.83-1.53l3.23-4.56c-4.97-4.83-19.13-4.27-18.62,4.43-.41,7.98,10.78,5.65,12.72,9.56-1.2,3.63-7.85.86-10.23-1.13l-3.6,4.3c13.99,12,31.65-6.31,11.66-11.06ZM172.36,116.43h-11.03v-3.96h12.19v-5.66h-18.65v23.32h6.46v-8.33h11.03v-5.36ZM197.91,130.12h-7.46l-4.7-7.06h-2.83v7.06h-6.46v-23.32c4.52.3,15.71-1.27,18.62,2.53,3.71,3.49,2.2,11.13-2.73,12.66l5.56,8.13ZM190.65,115.23c.28-3.7-5.32-2.71-7.73-2.83v5.6c2.35-.08,7.97.78,7.73-2.76ZM206.81,120.93h11.19v-5.1h-11.19v-3.53h12.36v-5.5h-18.75v23.32h18.92v-5.5h-12.52v-3.7ZM241.22,122.86c.36-7.96-10.87-5.59-12.73-9.53.93-3.26,6.47-.93,8.86.73l3.23-4.56c-4.97-4.83-19.13-4.27-18.62,4.43-.41,7.98,10.78,5.65,12.72,9.56-1.2,3.63-7.85.86-10.23-1.13l-3.6,4.3c5.29,5.41,20.58,5.87,20.35-3.8ZM259.11,115.53h-8.29v-8.73h-6.46v23.32h6.46v-8.86h8.29v8.86h6.46v-23.32h-6.46v8.73ZM276.1,120.93h11.19v-5.1h-11.19v-3.53h12.36v-5.5h-18.75v23.32h18.92v-5.5h-12.52v-3.7ZM307.54,119.13l-9.59-12.32h-6.03v23.32h6.4v-12.79l9.96,12.79h5.66v-23.32h-6.4v12.32ZM318.2,130.12h6.5v-23.32h-6.5v23.32ZM344.59,119.13l-9.59-12.32h-6.03v23.32h6.4v-12.79l9.96,12.79h5.66v-23.32h-6.4v12.32ZM366.41,116.5v4.73h4.6v2.83c-14.98,6.08-11.65-19.78,1.53-9.76l3.8-4.56c-7.26-7.12-22.63-2.34-22.02,8.73-.65,11.8,15.48,15.5,22.82,8.53v-10.49h-10.73ZM101.91,146.9c2.34-1.3,5.56-.84,7.32,1.34l2.61-2.41c-5.14-6.23-17.17-2.56-16.75,5.97-.42,8.53,11.64,12.22,16.75,5.94l-2.61-2.41c-5.68,6.77-14.69-3.92-7.32-8.44ZM126.16,143.03h-4.06v17.55h12.86v-3.31h-8.8v-14.24ZM148.81,153.26h8.15v-3.16h-8.15v-3.81h9.23v-3.26h-13.27v17.55h13.59v-3.26h-9.55v-4.06ZM178.65,143.03l7.85,17.55h-4.26l-1.55-3.76h-8.15l-1.56,3.76h-4.16l7.82-17.55h4.01ZM179.4,153.74l-2.78-6.72-2.78,6.72h5.57ZM207.94,153.69l-8.73-10.66h-3.36v17.55h4.01v-10.66l8.75,10.66h3.34v-17.55h-4.01v10.66ZM223.63,160.58h4.06v-17.55h-4.06v17.55ZM251.47,153.69l-8.73-10.66h-3.36v17.55h4.01v-10.66l8.75,10.66h3.34v-17.55h-4.01v10.66ZM272.93,146.89c2.38-1.27,5.65-.83,7.52,1.28l2.61-2.41c-3.95-4.57-12.71-3.92-15.76,1.37-5.64,9.69,7.55,18,15.43,11.52v-7.12h-3.71v5.14c-6.44,3.87-12.64-5.94-6.09-9.78ZM192.22,68.29c-1.38,7.49-7.43,9.91-11.7,3.23l-9.06,7.94c4.63,8.9,21.32,9.76,27.46,2.94,6.48-5.45,10.2-29.31,13-37.4h-13.41l-6.29,23.29ZM247.56,56.77l3.18-11.76h-34.46l-11.06,41.17h13.76l3.59-13.47h19.23l2.88-10.7h-19.23l1.41-5.23h20.7ZM273.72,44.12c-17.76,0-26.4,13.64-26.4,24.88-1.19,20.29,29.43,23.37,38.4,9.06l-9.53-7.53c-4.1,5.97-14.43,6.18-14.47-2.76-1.11-8.74,13.05-16.94,16.58-6.29l12.29-5.35c-1.71-7.29-8-12-16.88-12ZM189.28,14.44c20.69,0,39.63,7.74,54.05,20.47,5.43.83,10.62,1.78,15.5,2.88-33-43.14-108.01-42.4-140.18,1.28,4.86-1.21,10.07-2.31,15.59-3.28,14.53-13.26,33.87-21.35,55.04-21.35ZM249.9,10.47c8.5-.26,8.66,13.29.07,13-8.55.48-8.57-13.36-.07-13ZM245.07,18.05c2.8-1.59,5.59-3.18,8.44-4.79-1.9-2.16-4.45-2.1-7.05-.3-2.06,1.42-2.25,3.55-1.39,5.09ZM260.7,20.85c6.57-.2,6.69,10.26.06,10.04-6.6.37-6.62-10.32-.06-10.04ZM256.98,26.7c2.16-1.23,4.32-2.45,6.52-3.7-1.47-1.67-3.44-1.62-5.45-.23-1.59,1.1-1.74,2.74-1.07,3.93ZM269.86.01c12.93-.4,13.17,20.2.11,19.76-13,.73-13.03-20.32-.11-19.76ZM262.52,11.54c4.26-2.42,8.51-4.83,12.83-7.29-2.89-3.28-6.77-3.19-10.72-.45-3.13,2.16-3.43,5.4-2.11,7.74ZM103.54,50.27c0,.16.12.32.25.65q.63-4.16,4.87-5.03c-3.42.21-5.14-1.25-4.92-4.9.09,3.49-1.41,5.2-4.99,4.99,3.16-.03,4.89,1.14,4.8,4.29ZM113.78,45.43c0,.13.09.26.2.53q.51-3.37,3.94-4.08c-2.77.17-4.17-1.01-3.99-3.97.08,2.83-1.14,4.21-4.05,4.04,2.56-.03,3.96.93,3.89,3.48ZM112.23,47.66c.07,2.5-1.01,3.72-3.58,3.58,2.72-.11,3.33,1.22,3.62,3.54q.45-2.98,3.49-3.6c-2.45.15-3.69-.89-3.53-3.51ZM107.9,41.62c0,.08.06.15.12.31q.3-2,2.34-2.42c-1.64.1-2.47-.6-2.37-2.35.05,1.68-.68,2.5-2.4,2.4,1.52-.02,2.35.55,2.31,2.06ZM121.56,47.8c-.28-1.04-.78-2.22-.68-3.29.51-.89,3.81-1.42,4.33-.9,6.31-3.48,14.74-3.21,21.73-1.57-1.01,1.59-1.86,2.94-2.71,4.28l.28.25c6.96-6.32,10.6,6.8,17.52,6.31,4.51.1,9.03.18,13.54.19.91,0,1.43.24,1.6,1.31-5.86.34-11.69.24-17.59-.45v1.13c-3.76-2.12-9.87-11.13-13.91-6.8-1.56,1.86-5.56,3.93-3.52,6.68.98,2.29,2.11,3.59,4.47,1.73.73,1.52.63,2.9-.33,4.24.08.05.17.1.25.15,1.64-1.75,2.04-4.29,1.21-6.53-.62-1.39.72-2.08,1.02-3.57.08.68.14,1.16.21,1.77.52-.25.98-.47,1.35-.64-3.1,4.65.73,3.4,1.93,6.7.73,3.25,1.97,2.35,4.27,1.24-.69.61-1.38,1.21-2.09,1.84,1.22,1.13,2.52,2.33,3.83,3.55.04-.48.1-1.14.16-1.81.08-.01.16-.02.25-.03l.31,3.07c.07,0,.14.01.21.02.16-.37.31-.74.52-1.23,6.37.74,12.72.11,19.24-.93-1.22,1.78-1.21,4.85-3.4,5.23-4.57-.18-9.12-.69-13.69-.58-.02.1-.04.2-.07.3,4.7,3.97,7.56,9.14,9.58,14.87-.45-.02-.9.03-1.33.18-2.61-2.27-6.49.05-6.25,3.33-2.46-1.69-6.15.26-6.11,3.02-2.08-1.29-5.41-2.88-7.54-1.12-3.15-4.8-3.45-10.58-4.58-16.04-.54-2.49-4.74-.71-5.62-3.38-4.54-6.55-2.74-4.29-3.28-11.31-2.91-.06-2.5,1.22-4.18,2.83-.29-1.36-1.06-1.77-2.07-2.2-1.87-.8-2.31-3.27-.89-4.8,1.26-1.57-.37-4.19-2.18-4.65-1.12-.66-.05-2.44-.98-3.26-.41,1.17-4.14,1.49-4.82.85ZM150.9,64.84c-3.07-.22-15.12,4.35-6.19,5.93l-.06-.36c.75-1.57,9.51-3.85,6.25-5.57ZM148.3,60.22c3.66.36,4.51-2.67.61-3.08-.2,1.02-.41,2.04-.61,3.08ZM138.42,63.7c1.35,5.67,8.02.71,11.9-.25,2.33-2.6-2.07-2.26-3.6-1.7-2.68.54-6.61-.8-8.3,1.95ZM143.98,58.07c.59,4.02,3.26,2.65,2.61-.76-.92.27-1.67.49-2.61.76ZM138.63,59.36c.25,3.41,3.09,1.68,5.25,1.64-.47-1.29-.73-2.29-1.18-3.35-1.13-1.32-4.75-.42-4.07,1.71ZM136.19,54.05c.32.97.62,1.87.96,2.92,1.43-.22,3.11-.47,4.7-.71-.49-1.24-.92-2.33-1.43-3.61-1.6-.33-2.89,1.05-4.23,1.4ZM133.87,52.48c.06.1.11.2.17.3,1.44-.59,2.87-1.19,4.39-1.81-.72-1.95-1.34-1.22-2.34-.24-1.6-.38-1.36,1.31-2.22,1.76ZM130.13,56.19c.28,4.06,3.29,1.89,5.18.72,2.52-2.58-4.6-2.42-5.18-.72Z"/>
  </g>
</svg>